<mxfile host="app.diagrams.net" modified="2023-05-12T20:34:07.675Z" agent="Mozilla/5.0 (Windows NT 10.0; Win64; x64) AppleWebKit/537.36 (KHTML, like Gecko) Chrome/113.0.0.0 Safari/537.36" etag="cAMzNxq-22BsuQ_ufVau" version="21.2.9" type="device">
  <diagram id="C5RBs43oDa-KdzZeNtuy" name="Page-1">
    <mxGraphModel dx="1050" dy="581" grid="1" gridSize="10" guides="1" tooltips="1" connect="1" arrows="1" fold="1" page="1" pageScale="1" pageWidth="827" pageHeight="1169" math="0" shadow="0">
      <root>
        <mxCell id="WIyWlLk6GJQsqaUBKTNV-0" />
        <mxCell id="WIyWlLk6GJQsqaUBKTNV-1" parent="WIyWlLk6GJQsqaUBKTNV-0" />
        <mxCell id="FIAMeoKrVB0VBsVTYVQM-38" value="&lt;b&gt;Client&lt;/b&gt;" style="html=1;whiteSpace=wrap;fillColor=#ffe6cc;strokeColor=#d79b00;labelBackgroundColor=none;" parent="WIyWlLk6GJQsqaUBKTNV-1" vertex="1">
          <mxGeometry x="84" y="290" width="110" height="50" as="geometry" />
        </mxCell>
        <mxCell id="l7QqItBJTJrtf9R2xzip-30" value="" style="endArrow=open;endFill=1;endSize=12;html=1;rounded=0;labelBackgroundColor=none;strokeColor=#182E3E;fontColor=default;" parent="WIyWlLk6GJQsqaUBKTNV-1" source="FIAMeoKrVB0VBsVTYVQM-38" target="6U8jZ9NoE3g1NNj66z3D-0" edge="1">
          <mxGeometry width="160" relative="1" as="geometry">
            <mxPoint x="399" y="150" as="sourcePoint" />
            <mxPoint x="169" y="240" as="targetPoint" />
          </mxGeometry>
        </mxCell>
        <mxCell id="6U8jZ9NoE3g1NNj66z3D-0" value="&lt;span style=&quot;font-weight: normal;&quot;&gt;&amp;lt;&amp;lt;interface&amp;gt;&amp;gt;&lt;br&gt;ButtonCreator&lt;/span&gt;" style="swimlane;fontStyle=1;align=center;verticalAlign=top;childLayout=stackLayout;horizontal=1;startSize=40;horizontalStack=0;resizeParent=1;resizeParentMax=0;resizeLast=0;collapsible=1;marginBottom=0;whiteSpace=wrap;html=1;strokeColor=#909090;fontColor=#1A1A1A;fillColor=#F5AB50;" vertex="1" parent="WIyWlLk6GJQsqaUBKTNV-1">
          <mxGeometry x="59" y="406" width="160" height="74" as="geometry" />
        </mxCell>
        <mxCell id="6U8jZ9NoE3g1NNj66z3D-2" value="" style="line;strokeWidth=1;fillColor=none;align=left;verticalAlign=middle;spacingTop=-1;spacingLeft=3;spacingRight=3;rotatable=0;labelPosition=right;points=[];portConstraint=eastwest;strokeColor=inherit;fontColor=#1A1A1A;" vertex="1" parent="6U8jZ9NoE3g1NNj66z3D-0">
          <mxGeometry y="40" width="160" height="8" as="geometry" />
        </mxCell>
        <mxCell id="6U8jZ9NoE3g1NNj66z3D-3" value="+ getButton(): string" style="text;strokeColor=none;fillColor=none;align=left;verticalAlign=top;spacingLeft=4;spacingRight=4;overflow=hidden;rotatable=0;points=[[0,0.5],[1,0.5]];portConstraint=eastwest;whiteSpace=wrap;html=1;fontColor=#1A1A1A;" vertex="1" parent="6U8jZ9NoE3g1NNj66z3D-0">
          <mxGeometry y="48" width="160" height="26" as="geometry" />
        </mxCell>
        <mxCell id="6U8jZ9NoE3g1NNj66z3D-5" value="ButtonsLib" style="swimlane;fontStyle=1;align=center;verticalAlign=top;childLayout=stackLayout;horizontal=1;startSize=30;horizontalStack=0;resizeParent=1;resizeParentMax=0;resizeLast=0;collapsible=1;marginBottom=0;whiteSpace=wrap;html=1;strokeColor=#909090;fontColor=#1A1A1A;fillColor=#F5AB50;" vertex="1" parent="WIyWlLk6GJQsqaUBKTNV-1">
          <mxGeometry x="609" y="346" width="160" height="194" as="geometry" />
        </mxCell>
        <mxCell id="6U8jZ9NoE3g1NNj66z3D-6" value="# type: ButtonType" style="text;strokeColor=none;fillColor=none;align=left;verticalAlign=top;spacingLeft=4;spacingRight=4;overflow=hidden;rotatable=0;points=[[0,0.5],[1,0.5]];portConstraint=eastwest;whiteSpace=wrap;html=1;fontColor=#1A1A1A;" vertex="1" parent="6U8jZ9NoE3g1NNj66z3D-5">
          <mxGeometry y="30" width="160" height="26" as="geometry" />
        </mxCell>
        <mxCell id="6U8jZ9NoE3g1NNj66z3D-9" value="+ color: string" style="text;strokeColor=none;fillColor=none;align=left;verticalAlign=top;spacingLeft=4;spacingRight=4;overflow=hidden;rotatable=0;points=[[0,0.5],[1,0.5]];portConstraint=eastwest;whiteSpace=wrap;html=1;fontColor=#1A1A1A;" vertex="1" parent="6U8jZ9NoE3g1NNj66z3D-5">
          <mxGeometry y="56" width="160" height="26" as="geometry" />
        </mxCell>
        <mxCell id="6U8jZ9NoE3g1NNj66z3D-10" value="+ size: string" style="text;strokeColor=none;fillColor=none;align=left;verticalAlign=top;spacingLeft=4;spacingRight=4;overflow=hidden;rotatable=0;points=[[0,0.5],[1,0.5]];portConstraint=eastwest;whiteSpace=wrap;html=1;fontColor=#1A1A1A;" vertex="1" parent="6U8jZ9NoE3g1NNj66z3D-5">
          <mxGeometry y="82" width="160" height="26" as="geometry" />
        </mxCell>
        <mxCell id="6U8jZ9NoE3g1NNj66z3D-7" value="" style="line;strokeWidth=1;fillColor=none;align=left;verticalAlign=middle;spacingTop=-1;spacingLeft=3;spacingRight=3;rotatable=0;labelPosition=right;points=[];portConstraint=eastwest;strokeColor=inherit;fontColor=#1A1A1A;" vertex="1" parent="6U8jZ9NoE3g1NNj66z3D-5">
          <mxGeometry y="108" width="160" height="8" as="geometry" />
        </mxCell>
        <mxCell id="6U8jZ9NoE3g1NNj66z3D-8" value="+ setColor(): void" style="text;strokeColor=none;fillColor=none;align=left;verticalAlign=top;spacingLeft=4;spacingRight=4;overflow=hidden;rotatable=0;points=[[0,0.5],[1,0.5]];portConstraint=eastwest;whiteSpace=wrap;html=1;fontColor=#1A1A1A;" vertex="1" parent="6U8jZ9NoE3g1NNj66z3D-5">
          <mxGeometry y="116" width="160" height="26" as="geometry" />
        </mxCell>
        <mxCell id="6U8jZ9NoE3g1NNj66z3D-11" value="+ setSize(): void" style="text;strokeColor=none;fillColor=none;align=left;verticalAlign=top;spacingLeft=4;spacingRight=4;overflow=hidden;rotatable=0;points=[[0,0.5],[1,0.5]];portConstraint=eastwest;whiteSpace=wrap;html=1;fontColor=#1A1A1A;" vertex="1" parent="6U8jZ9NoE3g1NNj66z3D-5">
          <mxGeometry y="142" width="160" height="26" as="geometry" />
        </mxCell>
        <mxCell id="6U8jZ9NoE3g1NNj66z3D-12" value="+ getInfo(): string" style="text;strokeColor=none;fillColor=none;align=left;verticalAlign=top;spacingLeft=4;spacingRight=4;overflow=hidden;rotatable=0;points=[[0,0.5],[1,0.5]];portConstraint=eastwest;whiteSpace=wrap;html=1;fontColor=#1A1A1A;" vertex="1" parent="6U8jZ9NoE3g1NNj66z3D-5">
          <mxGeometry y="168" width="160" height="26" as="geometry" />
        </mxCell>
        <mxCell id="6U8jZ9NoE3g1NNj66z3D-13" value="ButtonAdapter1" style="swimlane;fontStyle=1;align=center;verticalAlign=top;childLayout=stackLayout;horizontal=1;startSize=26;horizontalStack=0;resizeParent=1;resizeParentMax=0;resizeLast=0;collapsible=1;marginBottom=0;whiteSpace=wrap;html=1;strokeColor=#909090;fontColor=#1A1A1A;fillColor=#F5AB50;" vertex="1" parent="WIyWlLk6GJQsqaUBKTNV-1">
          <mxGeometry x="299" y="350" width="160" height="86" as="geometry" />
        </mxCell>
        <mxCell id="6U8jZ9NoE3g1NNj66z3D-14" value="- button: ButtonsLib" style="text;strokeColor=none;fillColor=none;align=left;verticalAlign=top;spacingLeft=4;spacingRight=4;overflow=hidden;rotatable=0;points=[[0,0.5],[1,0.5]];portConstraint=eastwest;whiteSpace=wrap;html=1;fontColor=#1A1A1A;" vertex="1" parent="6U8jZ9NoE3g1NNj66z3D-13">
          <mxGeometry y="26" width="160" height="26" as="geometry" />
        </mxCell>
        <mxCell id="6U8jZ9NoE3g1NNj66z3D-15" value="" style="line;strokeWidth=1;fillColor=none;align=left;verticalAlign=middle;spacingTop=-1;spacingLeft=3;spacingRight=3;rotatable=0;labelPosition=right;points=[];portConstraint=eastwest;strokeColor=inherit;fontColor=#1A1A1A;" vertex="1" parent="6U8jZ9NoE3g1NNj66z3D-13">
          <mxGeometry y="52" width="160" height="8" as="geometry" />
        </mxCell>
        <mxCell id="6U8jZ9NoE3g1NNj66z3D-16" value="+ getButton(): string" style="text;strokeColor=none;fillColor=none;align=left;verticalAlign=top;spacingLeft=4;spacingRight=4;overflow=hidden;rotatable=0;points=[[0,0.5],[1,0.5]];portConstraint=eastwest;whiteSpace=wrap;html=1;fontColor=#1A1A1A;" vertex="1" parent="6U8jZ9NoE3g1NNj66z3D-13">
          <mxGeometry y="60" width="160" height="26" as="geometry" />
        </mxCell>
        <mxCell id="6U8jZ9NoE3g1NNj66z3D-17" value="ButtonAdapter2" style="swimlane;fontStyle=1;align=center;verticalAlign=top;childLayout=stackLayout;horizontal=1;startSize=26;horizontalStack=0;resizeParent=1;resizeParentMax=0;resizeLast=0;collapsible=1;marginBottom=0;whiteSpace=wrap;html=1;strokeColor=#909090;fontColor=#1A1A1A;fillColor=#F5AB50;" vertex="1" parent="WIyWlLk6GJQsqaUBKTNV-1">
          <mxGeometry x="299" y="480" width="160" height="60" as="geometry" />
        </mxCell>
        <mxCell id="6U8jZ9NoE3g1NNj66z3D-19" value="" style="line;strokeWidth=1;fillColor=none;align=left;verticalAlign=middle;spacingTop=-1;spacingLeft=3;spacingRight=3;rotatable=0;labelPosition=right;points=[];portConstraint=eastwest;strokeColor=inherit;fontColor=#1A1A1A;" vertex="1" parent="6U8jZ9NoE3g1NNj66z3D-17">
          <mxGeometry y="26" width="160" height="8" as="geometry" />
        </mxCell>
        <mxCell id="6U8jZ9NoE3g1NNj66z3D-20" value="+ getButton(): string" style="text;strokeColor=none;fillColor=none;align=left;verticalAlign=top;spacingLeft=4;spacingRight=4;overflow=hidden;rotatable=0;points=[[0,0.5],[1,0.5]];portConstraint=eastwest;whiteSpace=wrap;html=1;fontColor=#1A1A1A;" vertex="1" parent="6U8jZ9NoE3g1NNj66z3D-17">
          <mxGeometry y="34" width="160" height="26" as="geometry" />
        </mxCell>
        <mxCell id="6U8jZ9NoE3g1NNj66z3D-21" value="" style="endArrow=diamondThin;endFill=1;endSize=24;html=1;rounded=0;strokeColor=#182E3E;fontColor=#1A1A1A;" edge="1" parent="WIyWlLk6GJQsqaUBKTNV-1" source="6U8jZ9NoE3g1NNj66z3D-5" target="6U8jZ9NoE3g1NNj66z3D-13">
          <mxGeometry width="160" relative="1" as="geometry">
            <mxPoint x="249" y="620" as="sourcePoint" />
            <mxPoint x="409" y="620" as="targetPoint" />
            <Array as="points">
              <mxPoint x="519" y="440" />
              <mxPoint x="519" y="393" />
            </Array>
          </mxGeometry>
        </mxCell>
        <mxCell id="6U8jZ9NoE3g1NNj66z3D-22" value="Extends" style="endArrow=block;endSize=16;endFill=0;html=1;rounded=0;strokeColor=#182E3E;fontColor=#1A1A1A;entryX=0;entryY=0.5;entryDx=0;entryDy=0;" edge="1" parent="WIyWlLk6GJQsqaUBKTNV-1" source="6U8jZ9NoE3g1NNj66z3D-17" target="6U8jZ9NoE3g1NNj66z3D-8">
          <mxGeometry width="160" relative="1" as="geometry">
            <mxPoint x="479" y="600" as="sourcePoint" />
            <mxPoint x="639" y="600" as="targetPoint" />
            <Array as="points">
              <mxPoint x="499" y="510" />
              <mxPoint x="499" y="475" />
            </Array>
          </mxGeometry>
        </mxCell>
        <mxCell id="6U8jZ9NoE3g1NNj66z3D-24" value="" style="endArrow=block;dashed=1;endFill=0;endSize=12;html=1;rounded=0;strokeColor=#182E3E;fontColor=#1A1A1A;" edge="1" parent="WIyWlLk6GJQsqaUBKTNV-1" source="6U8jZ9NoE3g1NNj66z3D-13" target="6U8jZ9NoE3g1NNj66z3D-0">
          <mxGeometry width="160" relative="1" as="geometry">
            <mxPoint x="129" y="580" as="sourcePoint" />
            <mxPoint x="289" y="580" as="targetPoint" />
            <Array as="points">
              <mxPoint x="259" y="393" />
              <mxPoint x="259" y="443" />
            </Array>
          </mxGeometry>
        </mxCell>
        <mxCell id="6U8jZ9NoE3g1NNj66z3D-25" value="" style="endArrow=block;dashed=1;endFill=0;endSize=12;html=1;rounded=0;strokeColor=#182E3E;fontColor=#1A1A1A;" edge="1" parent="WIyWlLk6GJQsqaUBKTNV-1" source="6U8jZ9NoE3g1NNj66z3D-17" target="6U8jZ9NoE3g1NNj66z3D-0">
          <mxGeometry width="160" relative="1" as="geometry">
            <mxPoint x="89" y="570" as="sourcePoint" />
            <mxPoint x="249" y="570" as="targetPoint" />
            <Array as="points">
              <mxPoint x="259" y="510" />
              <mxPoint x="259" y="443" />
            </Array>
          </mxGeometry>
        </mxCell>
        <mxCell id="6U8jZ9NoE3g1NNj66z3D-26" value="«Annotation»&lt;br&gt;&lt;b&gt;ButtonType is Enum&lt;/b&gt;" style="html=1;dropTarget=0;whiteSpace=wrap;strokeColor=#d79b00;fillColor=#ffe6cc;" vertex="1" parent="WIyWlLk6GJQsqaUBKTNV-1">
          <mxGeometry x="820" y="346" width="180" height="90" as="geometry" />
        </mxCell>
        <mxCell id="6U8jZ9NoE3g1NNj66z3D-27" value="" style="shape=module;jettyWidth=8;jettyHeight=4;strokeColor=#909090;fontColor=#1A1A1A;fillColor=#F5AB50;" vertex="1" parent="6U8jZ9NoE3g1NNj66z3D-26">
          <mxGeometry x="1" width="20" height="20" relative="1" as="geometry">
            <mxPoint x="-27" y="7" as="offset" />
          </mxGeometry>
        </mxCell>
        <mxCell id="6U8jZ9NoE3g1NNj66z3D-28" value="" style="endArrow=none;dashed=1;html=1;rounded=0;strokeColor=#182E3E;fontColor=#1A1A1A;" edge="1" parent="WIyWlLk6GJQsqaUBKTNV-1" source="6U8jZ9NoE3g1NNj66z3D-6" target="6U8jZ9NoE3g1NNj66z3D-26">
          <mxGeometry width="50" height="50" relative="1" as="geometry">
            <mxPoint x="670" y="290" as="sourcePoint" />
            <mxPoint x="720" y="240" as="targetPoint" />
          </mxGeometry>
        </mxCell>
      </root>
    </mxGraphModel>
  </diagram>
</mxfile>
